<?xml version="1.0" encoding="utf-8"?>
<!-- Generator: Adobe Illustrator 16.0.0, SVG Export Plug-In . SVG Version: 6.00 Build 0)  -->
<!DOCTYPE svg PUBLIC "-//W3C//DTD SVG 1.1//EN" "http://www.w3.org/Graphics/SVG/1.1/DTD/svg11.dtd">
<svg version="1.1" id="Livello_1" xmlns:sketch="http://www.bohemiancoding.com/sketch/ns"
	 xmlns="http://www.w3.org/2000/svg" xmlns:xlink="http://www.w3.org/1999/xlink" x="0px" y="0px" width="129.789px"
	 height="137.5px" viewBox="15.105 211.524 129.789 137.5" enable-background="new 15.105 211.524 129.789 137.5"
	 xml:space="preserve">
<title>logo rubyday</title>
<desc>Created with Sketch.</desc>
<g id="Page-1" sketch:type="MSPage">
	<g id="logo-rubyday" sketch:type="MSArtboardGroup">
		<path id="logo" sketch:type="MSShapeGroup" fill="#5D4CA0" d="M15.105,316.923v-75.188c0-16.783,14.098-30.21,31.217-30.21h43.301
			c30.209,0,54.713,24.503,54.713,54.378c0,18.797-8.727,35.244-23.496,45.65c-2.35,1.678-1.007,5.035,2.014,3.692
			c6.378-3.021,11.077-6.378,16.448-14.434c8.727,12.419,7.049,28.531-3.692,39.272c-11.077,11.077-31.888,13.091-42.294-1.007
			l-16.447-19.469c-1.007,16.112-14.098,28.531-30.881,28.531S15.105,334.042,15.105,316.923L15.105,316.923z M74.518,258.182
			v18.462c1.343,0.671,2.685,0.671,4.699,0.671c5.706,0,9.734-4.363,9.734-10.07c0-5.706-4.028-10.405-9.734-10.405
			C77.203,256.839,75.86,257.51,74.518,258.182z"/>
	</g>
</g>
</svg>
