<svg xmlns="http://www.w3.org/2000/svg" viewBox="0 0 623.62 255.12"><defs><style>.cls-1{fill:#fff;}.cls-2{fill:#04246e;}</style></defs><g id="BG"><rect class="cls-1" width="623.62" height="255.12"/></g><g id="Logo"><g id="Layer_2" data-name="Layer 2"><g id="Layer_1-2" data-name="Layer 1-2"><path class="cls-2" d="M36.15,94a4.42,4.42,0,0,1,4.59-3.3H47A4.35,4.35,0,0,1,51.57,94l21.65,61.29c1,2.82-.29,4.67-3.3,4.67h-4.5a4.36,4.36,0,0,1-4.59-3.3L56,142.32H31.66l-4.79,14.26a4.34,4.34,0,0,1-4.58,3.4H17.81c-3,0-4.31-1.85-3.3-4.67Zm16.69,38-6.16-18.53C45.53,109.53,44,102.7,44,102.7h-.2s-1.57,6.83-2.74,10.75L34.78,132Z"/><path class="cls-2" d="M80.93,114.26a3.71,3.71,0,0,1,3.26-4.1,3.93,3.93,0,0,1,.84,0h3.12c2.64,0,4,1.45,4,3.42v2.33c0,.65,0,1.3-.1,1.94h.18a17.85,17.85,0,0,1,16-8.79c13.47,0,22.15,10.63,22.15,26,0,15.82-9.75,26.05-22.83,26.05a16.16,16.16,0,0,1-14.34-7.61H93a29.33,29.33,0,0,1,.36,4.29v17.5a3.61,3.61,0,0,1-3,4.11,3.69,3.69,0,0,1-1,0H85a3.67,3.67,0,0,1-4.1-3.18,3.62,3.62,0,0,1,0-.93Zm24.4,36.46c6.82,0,12.48-5.56,12.48-15.42,0-9.47-5.07-15.61-12.3-15.61-6.44,0-12.58,4.68-12.58,15.71C92.93,143.11,97.22,150.72,105.33,150.72Z"/><path class="cls-2" d="M139.76,114.26a3.71,3.71,0,0,1,3.25-4.1,3.93,3.93,0,0,1,.84,0H147c2.65,0,4,1.45,4,3.42v2.33c0,.65,0,1.3-.1,1.94h.28a17.86,17.86,0,0,1,16-8.78c13.47,0,22.15,10.63,22.15,26.05,0,15.81-9.75,26-22.83,26a16.16,16.16,0,0,1-14.34-7.61h-.2a28,28,0,0,1,.3,4.29v17.48a3.64,3.64,0,0,1-3.08,4.11,3.56,3.56,0,0,1-1,0h-4.28a3.67,3.67,0,0,1-4.09-3.18,3.62,3.62,0,0,1,0-.93Zm24.4,36.46c6.81,0,12.48-5.56,12.48-15.42,0-9.47-5.07-15.61-12.28-15.61-6.46,0-12.6,4.68-12.6,15.71C151.76,143.11,156.12,150.72,164.16,150.72Z"/><path class="cls-2" d="M196.94,148.47l2.14-3.12c1.56-2.14,3.31-2.24,5.65-.87a24.42,24.42,0,0,0,14.11,5.07c6.44,0,10.34-3.31,10.34-7.91,0-13.21-32.29-10.43-32.29-32,0-12.19,10.13-20.1,23.31-20.1a32.21,32.21,0,0,1,17.86,5.28,3.85,3.85,0,0,1,1.47,5.24,3.45,3.45,0,0,1-.2.32l-1.75,3.22c-1.47,2.82-3.52,2.43-5.57,1.36a22.71,22.71,0,0,0-12-3.8c-6.45,0-10.54,3.12-10.54,7.81,0,13,32.3,9.65,32.3,31.71,0,11.22-8.4,20.48-22.93,20.48a36.73,36.73,0,0,1-21.27-7,3.62,3.62,0,0,1-.63-5.66Z"/><path class="cls-2" d="M251.28,97.75V94.81a3.63,3.63,0,0,1,3.09-4.1,3.87,3.87,0,0,1,.9,0h4.29a3.7,3.7,0,0,1,4.1,3.25,4.12,4.12,0,0,1,0,.86v2.94a3.61,3.61,0,0,1-3.18,4,3.16,3.16,0,0,1-.92,0h-4.29a3.53,3.53,0,0,1-4-3A3.09,3.09,0,0,1,251.28,97.75Zm0,16.51a3.64,3.64,0,0,1,3.11-4.09,3.7,3.7,0,0,1,.88,0h4.29a3.62,3.62,0,0,1,4,3.2,3,3,0,0,1,0,.9v41.62a3.6,3.6,0,0,1-4,4.1h-4.29a3.58,3.58,0,0,1-4-3.1,3.35,3.35,0,0,1,0-1Z"/><path class="cls-2" d="M285.13,168.08a27,27,0,0,0,10.05,1.85c7.61,0,14.05-3.22,14.05-12.1v-3.7a21.72,21.72,0,0,1,.2-2.54h-.2c-2.74,4.69-7,7.41-13.67,7.41C281,159,273,147.45,273,133.73s7.61-24.67,22.44-24.67c11.55,0,14.74,7.61,14.74,7.61h.19a7.8,7.8,0,0,1-.1-1.28v-1.84c0-1.87,1.37-3.31,4-3.31h3.3a3.65,3.65,0,0,1,4,3.19,3.84,3.84,0,0,1,0,.83V157c0,17.08-13.47,23.52-25.77,23.52a39.91,39.91,0,0,1-14.54-2.64,3.5,3.5,0,0,1-2.59-4.22,3.6,3.6,0,0,1,.44-1.05l.75-2.19C281,167.88,282.49,167.21,285.13,168.08Zm24.4-34c0-11.42-5.66-14.44-12.1-14.44-7.71,0-11.92,5.46-11.92,13.67,0,9,4.49,15.32,12.5,15.32C303.87,148.57,309.53,145.16,309.53,134.06Z"/><path class="cls-2" d="M333.91,114.26a3.64,3.64,0,0,1,3.11-4.09,3.71,3.71,0,0,1,.88,0h3.82a3.61,3.61,0,0,1,4,3.18,3.55,3.55,0,0,1,0,.92v3a15.28,15.28,0,0,1-.2,2.24h.2A19.41,19.41,0,0,1,363.37,109c11,0,17.37,5.74,17.37,18.92v28a3.63,3.63,0,0,1-3.07,4.1,3.55,3.55,0,0,1-1,0h-4.19a3.64,3.64,0,0,1-4.09-3.14,3.86,3.86,0,0,1,0-1V130.51c0-6-1.65-10.15-7.81-10.15-8.78,0-14.34,7.33-14.34,16.31v19.21a3.61,3.61,0,0,1-3,4.09,3.57,3.57,0,0,1-1,0H337.9a3.58,3.58,0,0,1-4-3.1,3.35,3.35,0,0,1,0-1Z"/><path class="cls-2" d="M417.63,129.24h2.05v-1.17c0-6.6-4.2-8.78-9.28-8.78a22.29,22.29,0,0,0-10.33,2.84c-2.45,1.07-4.31.68-5.48-1.65l-1-1.85a3.64,3.64,0,0,1,.89-5.06,3.68,3.68,0,0,1,.76-.4,35.35,35.35,0,0,1,16.29-4.1c12.88,0,20.59,7.22,20.59,19.81v27A3.62,3.62,0,0,1,428,160h-3.3a3.58,3.58,0,0,1-4-3.1,3.35,3.35,0,0,1,0-1v-2a9.16,9.16,0,0,1,.2-2.15h-.2a18.13,18.13,0,0,1-15.62,9.36c-9.08,0-16.5-5.84-16.5-14.85C388.54,131.69,406.5,129.24,417.63,129.24Zm-9.28,22.45c6.93,0,11.42-7,11.42-13.07v-1.85h-2.06c-6.24,0-16.87,1-16.87,8.39C400.84,148.47,403.38,151.69,408.35,151.69Z"/><path class="cls-2" d="M443.48,94.81a3.63,3.63,0,0,1,3.09-4.1,3.87,3.87,0,0,1,.9,0h4.29a3.65,3.65,0,0,1,4,3.23,3.7,3.7,0,0,1,0,.88v48.68c0,4.95,2.05,5.76,3.9,6a3.17,3.17,0,0,1,3,3.33,1.09,1.09,0,0,1,0,.18v3.3a3.7,3.7,0,0,1-3.12,4.2,3.5,3.5,0,0,1-1,0c-6.61,0-15.12-1.75-15.12-16Z"/><path class="cls-2" d="M594.35,95.34c-9,0-15.4,7.91-22,16.72-4.11-18.72-8.67-37.42-23.2-37.42S530,93.34,525.86,112.08c-6.6-8.83-13-16.74-22-16.74-5.71,0-15.39,3.88-15.39,18.44v26.41c0,14.27,7.63,17.77,12.2,19h0c7.89,2.05,26.89,4,48.28,4s40.39-1.91,48.28-4h0c4.58-1.21,12.22-4.71,12.22-19V113.78c0-14.56-9.67-18.44-15.39-18.44M549.13,82.89c8.7,0,12,17.17,16.64,37.77-5.06,6.24-10.45,11.27-16.64,11.27s-11.55-5-16.63-11.27c4.32-19.26,7.66-37.77,16.63-37.77m-52.27,57.38V113.86c0-9.19,4.95-10.19,7.13-10.19,6.34,0,13.2,10.57,19.63,19-4.59,19.25-9.45,31-20.9,28.56-3-.81-5.79-2.71-5.79-10.93m22.48,13.39c5.06-5.51,8.25-14.11,10.78-23.23,5.29,5.57,11.42,9.76,19,9.76s13.7-4.19,19-9.76c2.46,9.12,5.69,17.72,10.76,23.23-8.87.81-19.53,1.3-29.71,1.3s-20.93-.49-29.8-1.3m82.07-13.39c0,8.26-2.8,10.12-5.79,10.93-11.47,2.43-16.31-9.31-20.9-28.56,6.49-8.48,13.21-19,19.63-19,2.14,0,7.13,1,7.13,10.19Z"/></g></g></g></svg>