<svg xmlns="http://www.w3.org/2000/svg" viewBox="0 0 623.62 255.12"><defs><style>.cls-1{fill:#fff;}.cls-2{fill:#4988a2;}.cls-3{fill:#7a4198;}.cls-4{fill:#478b60;}.cls-5{fill:#135f66;}.cls-6{fill:#2b7b82;}.cls-7{fill:#194a7f;}.cls-8{fill:#5e2b7c;}.cls-9{fill:#7a2980;}.cls-10{fill:#456630;}.cls-11{fill:#e77a45;}.cls-12{fill:#6f8087;}.cls-13{fill:#404d5c;}</style></defs><title>appsignal</title><g id="BG"><rect class="cls-1" width="623.62" height="255.12"/></g><g id="Logo"><polygon class="cls-2" points="490.41 92.14 490.41 155.27 569.08 155.27 490.41 92.14"/><polygon class="cls-3" points="546.32 155.27 609.45 82.74 609.45 155.27 546.32 155.27"/><polygon class="cls-4" points="490.51 155.27 521.78 76.5 568.78 155.27 490.51 155.27"/><polygon class="cls-5" points="496.85 155.27 523.56 118.85 555.62 144.58 546.32 155.27 496.85 155.27"/><polygon class="cls-6" points="496.85 155.27 490.51 155.27 509.51 107.47 523.56 118.85 496.85 155.27"/><polygon class="cls-7" points="555.62 144.58 546.32 155.27 568.88 155.27 555.62 144.58"/><polyline class="cls-8" points="559.58 140.03 555.62 144.58 568.88 155.27 559.58 140.03"/><polygon class="cls-9" points="609.45 155.27 568.88 155.27 559.58 140.03 583.23 112.82 609.45 155.27"/><polygon class="cls-10" points="523.56 118.85 536.72 101.54 559.58 140.03 555.62 144.58 523.56 118.85"/><polygon class="cls-11" points="536.72 101.54 543.45 92.14 559.18 114.2 574.62 99.06 583.23 112.82 559.58 140.03 536.72 101.54"/><path class="cls-12" d="M74.73,155.27H62.66L55.83,132.9H32.58l-6.53,22.37H14.17l23.25-75.9h14ZM53.85,124.1l-5.94-19.79c-1.38-5-2.67-10.29-3.76-14.94H44c-1.08,4.65-2.27,10.19-3.56,14.84l-6,19.89Z"/><path class="cls-12" d="M95.11,109c3.76-6.14,9.7-9.5,17.32-9.5,12.27,0,21.57,10.88,21.57,27.9,0,20.09-11.58,29.09-23.16,29.09-6.53,0-11.87-3.06-14.54-7.52h-.2v28.6H84.62V118.26c0-7.13-.19-12.77-.39-17.61H94.32l.59,8.31Zm1,24.24c0,9.8,6.73,14,12.37,14,8.91,0,13.75-8.21,13.75-19.59,0-10.39-4.65-19-13.45-19-6.83,0-12.67,6.43-12.67,14.45Z"/><path class="cls-12" d="M155.87,109c3.76-6.14,9.69-9.5,17.31-9.5,12.27,0,21.57,10.88,21.57,27.9,0,20.09-11.57,29.09-23.15,29.09-6.53,0-11.87-3.06-14.55-7.52h-.19v28.6H145.38V118.26c0-7.13-.2-12.77-.4-17.61h10.09l.6,8.31Zm1,24.24c0,9.8,6.72,14,12.36,14,8.91,0,13.76-8.21,13.76-19.59,0-10.39-4.65-19-13.46-19-6.83,0-12.66,6.43-12.66,14.45V133.2Z"/><path class="cls-13" d="M242.15,91.15a27.89,27.89,0,0,0-13.46-3.37c-9,0-12.76,5.25-12.76,10.1,0,6.43,4.25,9.59,13.85,13.75,12.17,5.34,18,12,18,22.46,0,12.67-9.4,22.26-26.52,22.26-7.12,0-14.64-2.07-18.3-4.55l2.57-9.6a33.4,33.4,0,0,0,16.52,4.46c9,0,14.05-4.65,14.05-11.48,0-6.43-3.86-10.39-12.86-14.15-11.28-4.55-18.9-11.38-18.9-21.77,0-12,9.6-21.08,24.74-21.08A35.26,35.26,0,0,1,245,81.65Z"/><path class="cls-13" d="M265.3,92.93A6.68,6.68,0,1,1,272,86.3,6.45,6.45,0,0,1,265.3,92.93ZM271,155.27H259.56V100.55H271Z"/><path class="cls-13" d="M330.71,100.65c-.3,3.85-.5,8.41-.5,15.73v31.17c0,10.88-.89,31.07-26.81,31.07-6.33,0-13-1.39-17.22-4l2.57-8.91a29.77,29.77,0,0,0,14.75,3.86c8.9,0,15.24-4.94,15.24-17.31v-5.25h-.2c-2.77,4.65-8.12,8-15.14,8-12.86,0-21.77-11.38-21.77-26.72,0-18.5,11.18-28.89,23.15-28.89,8.12,0,12.67,4.15,15,8.51h.19l.5-7.32Zm-12.07,21.07c0-7.22-4.75-13.16-11.78-13.16-7.91,0-13.45,7.52-13.45,19.2,0,10.68,4.84,18.3,13.35,18.3,5.94,0,11.88-4.55,11.88-13.65Z"/><path class="cls-13" d="M389.19,155.27H377.71V123.21c0-7.72-2.57-14.25-10.39-14.25-5.64,0-11.68,4.65-11.68,13.36v33H344.17V116c0-6-.2-10.68-.4-15.33h10l.6,8.11h.29a18.71,18.71,0,0,1,16.53-9.3c8.51,0,18,5.54,18,22.46v33.35Z"/><path class="cls-13" d="M441.14,142.3a74.48,74.48,0,0,0,.79,13H431.54l-.79-6.34h-.3a18.45,18.45,0,0,1-15.24,7.42c-10.19,0-16-7.52-16-15.93,0-13.55,11.78-20.38,30.58-20.38,0-4.06,0-12.17-11-12.17a25.11,25.11,0,0,0-13.26,3.76L403.14,104c3.86-2.47,10.29-4.55,17.61-4.55,16,0,20.58,10.59,20.58,22.26V142.3ZM430,127.76c-9,0-19.4,1.68-19.4,11.38,0,6,3.76,8.7,8,8.7A11.13,11.13,0,0,0,430,136.76Z"/><path class="cls-13" d="M466.67,155.27h-11V82.74l11-6.24Z"/></g></svg>