<?xml version="1.0" encoding="utf-8"?>
<!-- Generator: Adobe Illustrator 16.0.3, SVG Export Plug-In . SVG Version: 6.00 Build 0)  -->
<!DOCTYPE svg PUBLIC "-//W3C//DTD SVG 1.1//EN" "http://www.w3.org/Graphics/SVG/1.1/DTD/svg11.dtd">
<svg version="1.1" xmlns="http://www.w3.org/2000/svg" xmlns:xlink="http://www.w3.org/1999/xlink" x="0px" y="0px" width="623.6px"
	 height="255.1px" viewBox="0 0 623.6 255.1" style="enable-background:new 0 0 623.6 255.1;" xml:space="preserve">
<style type="text/css">
<![CDATA[
	.st0{fill:#F9B83D;}
	.st1{fill:#FFFFFF;}
	.st2{fill:#072342;}
]]>
</style>
<g id="BG">
	<rect class="st1" width="623.6" height="255.1"/>
</g>
<g id="Logo">
	<path class="st0" d="M156.3,146.1c0.5-0.5,1.1-0.8,1.7-0.8c0.6,0,1.2,0.3,1.7,0.8c-0.5-0.5-1.1-0.8-1.7-0.8
		C157.4,145.3,156.8,145.6,156.3,146.1L156.3,146.1z M122.7,44c0,0.1,0.1,0.2,0.1,0.3v1.2c0,0.1,0,0.3,0,0.5v42.4
		c0,0.9-0.5,1.6-1.2,2c0.3,6,0.6,12,0.8,17.9c0.1,1.4,0.1,2.8,0.2,4.2c0.1,11.2,0.7,22.5,0.7,33.7c0,1.2,0,2.5,0,3.7
		c-0.1,5.8-1,11.8-0.2,17.4c0.1,0.9,0.3,1.9,0.6,2.8c0.5,1,0.5,2,0.9,2.8c0.1,0.2,0.3,0.3,0.5,0.5h12L122,187.8v7.1
		c2-0.3,3.9-1.2,5.4-2.6c0.9-0.9,2.4-0.9,3.3,0.1c0.9,0.9,0.9,2.4-0.1,3.3c-1.9,1.9-4.3,3.1-6.8,3.7c0.8,1.3,1.7,2.6,2.5,3.9
		c1.6,2.5,1.2,5.3,0.9,7.9c47.8-3.2,85.6-39.4,85.6-83.5C212.9,82.2,172.6,45.1,122.7,44L122.7,44z M132.2,80.6
		c0,1.3-1.1,2.4-2.3,2.4c-1.3,0-2.3-1.1-2.3-2.4V53.8c0-1.3,1-2.3,2.3-2.3c1.3,0,2.3,1,2.3,2.3V80.6z M199.9,134.7
		c0,18.7-15.2,33.9-33.9,33.9c-17.6,0-32-13.4-33.7-30.6l44.1-9.3V115c0-1.3,1-2.3,2.3-2.3c1.3,0,2.3,1,2.3,2.3v12.7l4.7-1v-17.2
		c0-1.3,1-2.3,2.3-2.3c1.3,0,2.4,1,2.4,2.3v16.2l4.7-1V114c0-1.3,1.1-2.3,2.4-2.3c1.3,0,2.3,1.1,2.3,2.3v15.5c0,0.4-0.1,0.8-0.3,1.1
		C199.8,131.9,200,133.3,199.9,134.7L199.9,134.7z"/>
	<path class="st1" d="M123.9,199.2c-1.1,0.3-2.2,0.4-3.4,0.4c-3.9,0-7.5-1.6-10.3-4.3c-0.9-0.9-0.9-2.4,0-3.3c0.9-0.9,2.4-0.9,3.3,0
		c1.5,1.5,3.3,2.4,5.4,2.8v-7.1l-15.1-14.4h21.2c-0.2-0.1-0.3-0.3-0.5-0.5c-0.4-0.7-0.4-1.8-0.9-2.8c-0.2-0.9-0.4-1.8-0.6-2.8
		c-0.8-5.6,0-11.6,0.2-17.4c0-1.3,0-2.5,0-3.8c0-11.2-0.6-22.5-0.7-33.7c0-1.4-0.1-2.8-0.2-4.1c-0.3-6-0.6-12-0.9-17.9
		c-0.3,0.2-0.7,0.3-1.1,0.3c-1.3,0-2.3-1.1-2.3-2.4v-0.1c-0.1-0.2-0.1-0.5-0.1-0.8V44.2c0-0.1,0-0.2,0.1-0.3
		C68.2,45,28,82.1,28,127.5c0,46.2,41.5,83.7,92.4,83.7c2.3,0,4.6-0.1,6.9-0.2c0.4-2.6,0.7-5.4-0.9-7.9
		C125.6,201.8,124.7,200.6,123.9,199.2L123.9,199.2z M108.7,53.7c0-1.3,1.1-2.3,2.4-2.3c1.3,0,2.4,1.1,2.4,2.3v26.8
		c0,1.3-1.1,2.4-2.4,2.4c-1.3,0-2.3-1.1-2.3-2.4L108.7,53.7L108.7,53.7z M75.4,168.4c-18.7,0-33.9-15.2-33.9-33.9
		c0-1.4,0.1-2.7,0.3-4.1c-0.2-0.3-0.3-0.7-0.3-1.1v-15.5c0-1.3,1.1-2.3,2.3-2.3c1.3,0,2.4,1.1,2.4,2.3v10.7l4.7,1v-16.2
		c0-1.3,1.1-2.3,2.3-2.3c1.3,0,2.3,1,2.3,2.3v17.2l4.7,1v-12.7c0-1.3,1-2.3,2.3-2.3c1.3,0,2.3,1.1,2.3,2.3v13.7l44.1,9.3
		C107.5,155,93,168.4,75.4,168.4z M85.1,146.6c-0.2-0.2-0.3-0.4-0.5-0.6c-0.5-0.5-1.1-0.8-1.7-0.8c-0.6,0-1.2,0.3-1.7,0.8
		c-0.2,0.2-0.3,0.3-0.5,0.6c-0.3,0.4-0.5,0.8-0.7,1.2c-0.4,0.9-0.6,2.1-0.6,3.3c0,0.4,0,0.8,0.1,1.2c0,0.2,0.1,0.4,0.1,0.6
		c0.1,0.4,0.2,0.7,0.3,1c0.2,0.5,0.4,0.9,0.6,1.3c0.6,1.1,1.5,1.7,2.5,1.7c1,0,1.8-0.7,2.5-1.7c0.2-0.4,0.4-0.8,0.6-1.3
		c0.1-0.3,0.2-0.7,0.3-1c0-0.2,0.1-0.4,0.1-0.6c0.1-0.4,0.1-0.8,0.1-1.2c0-1.2-0.2-2.3-0.6-3.2C85.7,147.3,85.4,146.9,85.1,146.6
		L85.1,146.6z M161,147.8c-0.2-0.5-0.4-0.9-0.7-1.2c-0.6-0.8-1.4-1.3-2.2-1.3c-0.9,0-1.6,0.5-2.2,1.3c-0.3,0.4-0.5,0.8-0.7,1.2
		c-0.4,0.9-0.6,2.1-0.6,3.3c0,0.4,0,0.8,0.1,1.2c0,0.2,0.1,0.4,0.1,0.6c0.1,0.4,0.2,0.7,0.3,1c0.2,0.5,0.4,0.9,0.6,1.3
		c0.6,1.1,1.5,1.7,2.5,1.7c1,0,1.8-0.7,2.5-1.7c0.2-0.4,0.4-0.8,0.6-1.3c0.1-0.3,0.2-0.7,0.3-1c0-0.2,0.1-0.4,0.1-0.6
		c0-0.4,0.1-0.8,0.1-1.2C161.6,149.8,161.4,148.7,161,147.8L161,147.8z"/>
	<path class="st2" d="M111.1,82.8c1.3,0,2.4-1.1,2.4-2.4V53.7c0-1.3-1.1-2.3-2.4-2.3c-1.3,0-2.3,1-2.3,2.3v26.8
		C108.7,81.8,109.8,82.8,111.1,82.8L111.1,82.8z M129.9,82.8c1.3,0,2.3-1.1,2.3-2.4V53.7c0-1.3-1.1-2.3-2.3-2.3
		c-1.3,0-2.3,1-2.3,2.3v26.8C127.6,81.8,128.6,82.8,129.9,82.8L129.9,82.8z M65.1,128.6v-13.7c0-1.3-1.1-2.3-2.3-2.3
		c-1.3,0-2.3,1-2.3,2.3v12.7l-4.7-1v-17.2c0-1.3-1-2.3-2.3-2.3c-1.3,0-2.3,1-2.3,2.3v16.2l-4.7-1v-10.7c0-1.3-1.1-2.3-2.3-2.3
		s-2.4,1.1-2.4,2.3v15.5c0,0.4,0.1,0.8,0.3,1.1c-0.2,1.3-0.3,2.7-0.3,4.1c0,18.7,15.2,33.9,33.9,33.9c17.6,0,32-13.4,33.7-30.6
		L65.1,128.6L65.1,128.6z M86.3,152.2c0,0.2-0.1,0.4-0.1,0.6c-0.1,0.4-0.2,0.7-0.3,1c-0.2,0.5-0.4,0.9-0.6,1.3
		c-0.6,1.1-1.5,1.7-2.5,1.7c-1,0-1.8-0.6-2.5-1.7c-0.2-0.4-0.4-0.8-0.6-1.3c-0.1-0.3-0.2-0.7-0.3-1c0-0.2-0.1-0.4-0.1-0.6
		c-0.1-0.4-0.1-0.8-0.1-1.2c0-1.2,0.2-2.3,0.6-3.2c0.2-0.5,0.4-0.9,0.7-1.2c0.6-0.8,1.4-1.3,2.2-1.3c0.8,0,1.6,0.5,2.2,1.3
		c0.3,0.4,0.5,0.8,0.7,1.2c0.4,0.9,0.6,2,0.6,3.3C86.4,151.5,86.4,151.9,86.3,152.2L86.3,152.2z M199.9,134.6c0-1.4-0.1-2.7-0.3-4.1
		c0.2-0.3,0.3-0.7,0.3-1.1v-15.5c0-1.3-1.1-2.3-2.3-2.3c-1.3,0-2.4,1.1-2.4,2.3v10.7l-4.7,1v-16.2c0-1.3-1-2.3-2.4-2.3
		c-1.3,0-2.3,1-2.3,2.3v17.2l-4.7,1v-12.7c0-1.3-1.1-2.3-2.3-2.3c-1.3,0-2.4,1.1-2.4,2.3v13.7l-44.1,9.3
		c1.7,17.2,16.1,30.6,33.7,30.6C184.8,168.4,199.9,153.3,199.9,134.6L199.9,134.6z M161.5,152.2c0,0.2-0.1,0.4-0.1,0.6
		c-0.1,0.4-0.2,0.7-0.3,1c-0.2,0.5-0.4,0.9-0.6,1.3c-0.6,1.1-1.5,1.7-2.5,1.7c-1,0-1.8-0.6-2.5-1.7c-0.2-0.4-0.4-0.8-0.6-1.3
		c-0.1-0.3-0.2-0.7-0.3-1c0-0.2-0.1-0.4-0.1-0.6c0-0.4-0.1-0.8-0.1-1.2c0-1.2,0.2-2.3,0.6-3.2c0.2-0.5,0.4-0.9,0.7-1.2
		c0.6-0.8,1.4-1.3,2.2-1.3c0.8,0,1.6,0.5,2.2,1.3c0.3,0.4,0.5,0.8,0.7,1.2c0.4,0.9,0.6,2,0.6,3.3
		C161.6,151.5,161.5,151.9,161.5,152.2L161.5,152.2z M137.1,173.3h-33.2l15.1,14.4v7.1c-2-0.4-3.9-1.3-5.4-2.8
		c-0.9-0.9-2.4-0.9-3.3,0c-0.9,0.9-0.9,2.4,0,3.3c2.7,2.8,6.4,4.3,10.3,4.3c1.2,0,2.3-0.1,3.4-0.4c2.5-0.6,4.9-1.8,6.8-3.7
		c0.9-0.9,1-2.4,0.1-3.3c-0.9-0.9-2.4-1-3.3-0.1c-1.5,1.4-3.4,2.4-5.4,2.6v-7.1L137.1,173.3L137.1,173.3z M226.2,71.6
		c0-19.6-15.9-35.4-35.4-35.4c-9.3,0-17.7,3.6-24.1,9.5c-13.9-6.6-29.6-10.3-46.3-10.3c-16.7,0-32.4,3.8-46.3,10.3
		c-6.3-5.9-14.7-9.5-24-9.5c-19.6,0-35.5,15.9-35.5,35.4c0,9.9,4.1,18.9,10.7,25.4c-3.7,9.6-5.7,19.9-5.7,30.6
		c0,50.9,45.2,92.3,100.8,92.3c55.6,0,100.8-41.4,100.8-92.3c0-10.7-2-21-5.7-30.6C222.1,90.5,226.2,81.5,226.2,71.6L226.2,71.6z
		 M127.3,211c-2.3,0.2-4.6,0.2-6.9,0.2c-51,0-92.5-37.6-92.5-83.7c0-45.5,40.2-82.5,90.1-83.7c0,0.1-0.1,0.2-0.1,0.3v43.2
		c0,0.3,0.1,0.5,0.1,0.8v0.1c0,1.3,1.1,2.4,2.4,2.4c0.4,0,0.8-0.1,1.1-0.3c0.7-0.4,1.2-1.2,1.2-2V45.9c0-0.2,0-0.3,0-0.5v-1.2
		c0-0.1,0-0.2-0.1-0.3c49.9,1.1,90.1,38.2,90.1,83.7C212.8,171.6,175,207.9,127.3,211L127.3,211z M267.3,93.7v-0.1
		c0-13.6,10.4-24.3,24.6-24.3c9.5,0,15.7,4,19.8,9.7l-9.8,7.5c-2.7-3.3-5.7-5.5-10.2-5.5c-6.5,0-11.1,5.6-11.1,12.4v0.1
		c0,7,4.6,12.5,11.1,12.5c4.9,0,7.7-2.3,10.6-5.7l9.7,6.9c-4.4,6.1-10.3,10.5-20.6,10.5C278,117.9,267.3,107.7,267.3,93.7
		L267.3,93.7z M332.1,69.9h12.5l19.9,47.1h-13.9l-3.3-8.4h-18.1l-3.3,8.4h-13.6L332.1,69.9L332.1,69.9z M343.4,98.4l-5.2-13.2
		l-5.3,13.2L343.4,98.4L343.4,98.4z M367.7,70.2h12.1L399,94.9V70.2h12.8v46.7h-11.3l-20-25.6v25.6h-12.8V70.2L367.7,70.2z
		 M430.2,81.5h-14V70.2h40.9v11.4h-14v35.4h-13L430.2,81.5L430.2,81.5z M461.9,70.2h13v46.7h-13L461.9,70.2L461.9,70.2z M482.1,70.2
		h37.6v11h-24.8v7.1h22.4v10.2h-22.5v7.4H520v11h-37.9L482.1,70.2L482.1,70.2z M525.3,70.2h22.1c7.1,0,12.1,1.9,15.2,5
		c2.7,2.7,4.1,6.3,4.1,10.9v0.1c0,7.2-3.8,12-9.6,14.4l11.2,16.3h-14.9l-9.4-14.2h-5.7v14.2h-13V70.2L525.3,70.2z M546.9,92.6
		c4.3,0,6.9-2.1,6.9-5.5V87c0-3.7-2.7-5.6-7-5.6h-8.5v11.3L546.9,92.6L546.9,92.6z M572.1,70.2h37.6v11h-24.8v7.1h22.4v10.2h-22.4
		v7.4H610v11h-37.9V70.2L572.1,70.2z M267,167.9v-0.1c0-13.6,10.4-24.3,24.6-24.3c9.6,0,15.7,4,19.8,9.7l-9.7,7.5
		c-2.7-3.3-5.7-5.5-10.2-5.5c-6.6,0-11.2,5.6-11.2,12.4v0.1c0,7,4.6,12.5,11.2,12.5c4.9,0,7.7-2.3,10.6-5.7l9.8,6.9
		c-4.4,6.1-10.4,10.6-20.6,10.6C277.7,192.1,267,181.9,267,167.9L267,167.9z M316,144.4h22.1c7.1,0,12.1,1.9,15.2,5
		c2.7,2.7,4.1,6.3,4.1,10.9v0.1c0,7.2-3.8,12-9.6,14.4l11.1,16.3h-14.9l-9.4-14.2H329v14.2h-13L316,144.4L316,144.4z M337.6,166.9
		c4.3,0,7-2.1,7-5.5v-0.1c0-3.7-2.7-5.6-7-5.6H329v11.3L337.6,166.9L337.6,166.9z M362.7,144.4h37.6v10.9h-24.8v7.1H398v10.2h-22.4
		v7.4h25.1v11h-37.9L362.7,144.4L362.7,144.4z M422.2,144.1h12.5l19.9,47.1h-13.9l-3.3-8.4h-18.1l-3.3,8.4h-13.6L422.2,144.1
		L422.2,144.1z M433.5,172.7l-5.2-13.2l-5.3,13.2L433.5,172.7L433.5,172.7z M463.2,155.8h-14v-11.3h40.9v11.3h-14v35.4h-12.9
		L463.2,155.8L463.2,155.8z M494.9,144.4h13v46.7h-13V144.4z M511.4,144.4h14.4l10.6,29.6l10.7-29.6h14.2l-19,47.1h-12L511.4,144.4
		L511.4,144.4z M559.9,167.9v-0.1c0-13.4,10.8-24.3,25.2-24.3c14.4,0,25.1,10.7,25.1,24.2v0.1c0,13.4-10.8,24.3-25.2,24.3
		C570.6,192.1,559.9,181.4,559.9,167.9L559.9,167.9z M597,167.9v-0.1c0-6.8-4.8-12.6-12-12.6c-7.1,0-11.9,5.7-11.9,12.5v0.1
		c0,6.7,4.9,12.6,12,12.6C592.2,180.4,597,174.7,597,167.9L597,167.9z"/>
</g>
</svg>
