<?xml version="1.0" encoding="utf-8"?>
<!-- Generator: Adobe Illustrator 16.0.3, SVG Export Plug-In . SVG Version: 6.00 Build 0)  -->
<!DOCTYPE svg PUBLIC "-//W3C//DTD SVG 1.1//EN" "http://www.w3.org/Graphics/SVG/1.1/DTD/svg11.dtd">
<svg version="1.1" xmlns="http://www.w3.org/2000/svg" xmlns:xlink="http://www.w3.org/1999/xlink" x="0px" y="0px" width="623.6px"
	 height="255.1px" viewBox="0 0 623.6 255.1" style="enable-background:new 0 0 623.6 255.1;" xml:space="preserve">
<style type="text/css">
<![CDATA[
	.st0{fill:#1A5EC6;}
	.st1{fill:#FFFFFF;}
]]>
</style>
<g id="BG">
	<rect class="st1" width="623.6" height="255.1"/>
</g>
<g id="Logo">
	<g id="blue">
		<path id="dnsimple-copy" class="st0" d="M75.1,66.3c-2.8,0-5.6,0.1-8.3,0.7v27.6c-3.8-1.5-8.3-2.2-14.2-2.2
			c-21,0-38.2,14.4-38.2,37.5c0,23.7,15.7,36.8,38.8,36.8c11.4,0,23.1-3.1,30.3-7V67C80.8,66.4,77.8,66.3,75.1,66.3L75.1,66.3z
			 M54.1,153.6c-12.7,0-21.4-8.8-21.4-22.8c0-13.9,9.3-22.8,21.7-22.8c5,0,9.6,0.6,13.6,3.2v40.2C63.5,153,58.9,153.8,54.1,153.6
			L54.1,153.6z M136.9,92.3c-15.2,0-27.5,5.9-33.8,11.1v61.2c2.8,0.6,5.7,0.7,8.3,0.7c2.8,0,5.8-0.1,8.5-0.7v-53
			c3.3-1.9,9.1-3.9,15.6-3.9c10.9,0,17.1,4.9,17.1,17.8v39.1c3,0.6,5.7,0.7,8.5,0.7c2.7,0,5.7-0.1,8.5-0.7v-43.1
			C169.6,105.4,159.7,92.3,136.9,92.3L136.9,92.3z M213.2,166.7c19.4,0,30.7-8.9,30.7-23.5c0-13.9-11.2-19.1-26.6-21.4
			c-12.1-1.9-15.2-4.1-15.2-8.7c0-4.4,3.9-7.2,12.8-7.2c8.5,0,15.8,2.5,20.7,5.3c3.4-2.7,5.7-6.8,6.4-12c-4.6-3.3-13.7-6.8-26.6-6.8
			c-17.9,0-29.7,8.9-29.7,21.9c0,14.8,11.9,19.4,24.5,21.3c12.7,1.9,16.7,4.6,16.7,9.3s-3.6,8.4-13.6,8.4c-11.2,0-17.5-3.8-21.8-6.9
			c-3.6,2.2-6.4,6.2-7.8,11.5C188,161.2,197.4,166.7,213.2,166.7L213.2,166.7z M267,84.5c5.9,0,10.9-4.9,10.9-11.1
			c0-6.2-5-11.1-10.9-11.1c-6.2,0-11.2,4.9-11.2,11.1C255.7,79.6,260.7,84.5,267,84.5L267,84.5z M266.9,165.4c2.8,0,5.7-0.1,8.4-0.7
			V94.4c-2.7-0.6-5.7-0.7-8.4-0.7c-2.9,0-5.7,0.1-8.6,0.7v70.2C261.2,165.2,264.2,165.4,266.9,165.4L266.9,165.4z M375.9,92.3
			c-9.6,0-18.3,3.7-24.2,8.1c-5.3-5-13.1-8.1-23.3-8.1c-14.9,0-27.8,6.2-33.5,11.1v61.2c2.9,0.6,5.7,0.7,8.4,0.7
			c2.9,0,5.9-0.1,8.6-0.7v-53c3.8-2.2,9-3.9,14.6-3.9c11.6,0,15.9,7.3,15.9,17.3v39.6c2.9,0.6,5.7,0.7,8.7,0.7
			c2.7,0,5.7-0.1,8.4-0.7V120c0-2.2-0.3-4.4-0.8-6.5c3.5-2.8,8.3-5.8,15.2-5.8c11.6,0,16.1,7.3,16.1,17.3v39.6
			c2.7,0.6,5.6,0.7,8.6,0.7c2.7,0,5.7-0.1,8.4-0.7V120C407,104.8,396.5,92.3,375.9,92.3L375.9,92.3z M456.6,92.3
			c-13.4,0-24.5,5.2-31.3,10.8V192c3,0.6,5.6,0.7,8.5,0.7s5.6-0.1,8.3-0.7v-27.3c4.4,1.5,9.2,2.1,15.1,2.1
			c19.6,0,37.2-13.8,37.2-37.5C494.4,105,478.1,92.3,456.6,92.3L456.6,92.3z M453.5,152.3c-5.5,0-9.9-0.9-13.8-2.8v-38.1
			c4.3-2.4,8.8-3.4,13.7-3.4c12.8,0,21.5,8.2,21.5,21.8C474.8,143.8,466.1,152.3,453.5,152.3L453.5,152.3z M517.9,165.4
			c3,0,6.2-0.1,9.1-0.7V67c-3-0.6-6.2-0.7-9.3-0.7c-3,0-6.1,0.1-9,0.7v97.6C512,165.2,515,165.4,517.9,165.4L517.9,165.4z
			 M609.2,124c0-18.8-13.4-31.7-32.3-31.7c-20.1,0-35.5,15.7-35.5,37.5c0,23,15.2,36.9,36.4,36.9c14.2,0,23.4-5.2,29.4-9.9
			c-0.6-4.3-3.6-9-7.3-11.4c-4.6,3.3-10.6,7.3-20.9,7.3c-11.8,0-18.9-7.1-20.3-18.7h49.9C609,130.1,609.2,127.7,609.2,124L609.2,124
			z M558.3,123.6c1.2-9.7,7.6-17,18.1-17c11.5,0.1,15.8,8.6,15.8,17H558.3z"/>
	</g>
</g>
</svg>
