<?xml version="1.0" encoding="utf-8"?>
<!-- Generator: Adobe Illustrator 16.0.3, SVG Export Plug-In . SVG Version: 6.00 Build 0)  -->
<!DOCTYPE svg PUBLIC "-//W3C//DTD SVG 1.1//EN" "http://www.w3.org/Graphics/SVG/1.1/DTD/svg11.dtd">
<svg version="1.1" xmlns="http://www.w3.org/2000/svg" xmlns:xlink="http://www.w3.org/1999/xlink" x="0px" y="0px" width="623.6px"
	 height="255.1px" viewBox="0 0 623.6 255.1" style="enable-background:new 0 0 623.6 255.1;" xml:space="preserve">
<style type="text/css">
<![CDATA[
	.st0{fill:#FFFFFF;}
	.st1{fill:#0C090A;}
]]>
</style>
<g id="BG">
	<rect class="st0" width="623.6" height="255.1"/>
</g>
<g id="Logo">
	<g>
		<path class="st1" d="M130.6,116.1H81c-1.3,0-2.3,1-2.3,2.3v24.2c0,1.3,1,2.3,2.3,2.3h19.3V175c0,0-4.3,1.5-16.3,1.5
			c-14.2,0-33.9-5.2-33.9-48.7c0-43.5,20.6-49.2,39.9-49.2c16.7,0,23.9,2.9,28.5,4.4c1.4,0.4,2.8-1,2.8-2.3l5.5-23.4
			c0-0.6-0.2-1.3-0.9-1.8c-1.9-1.3-13.2-7.7-41.9-7.7c-33.1,0-67,14.1-67,81.7c0,67.6,38.8,77.7,71.6,77.7
			c27.1,0,43.5-11.6,43.5-11.6c0.7-0.4,0.8-1.3,0.8-1.8v-75.5C132.9,117.1,131.9,116.1,130.6,116.1z"/>
		<path class="st1" d="M385.9,55.9c0-1.3-1-2.3-2.3-2.3h-27.9c-1.3,0-2.3,1-2.3,2.3c0,0,0,53.9,0,53.9h-43.5V55.9
			c0-1.3-1-2.3-2.3-2.3h-27.9c-1.3,0-2.3,1-2.3,2.3v146c0,1.3,1,2.3,2.3,2.3h27.9c1.3,0,2.3-1,2.3-2.3v-62.4h43.5
			c0,0-0.1,62.4-0.1,62.4c0,1.3,1,2.3,2.3,2.3h28c1.3,0,2.3-1,2.3-2.3V55.9z"/>
		<g>
			<g>
				<path class="st1" d="M183.2,75.1c0-10-8.1-18.2-18-18.2c-9.9,0-18,8.1-18,18.2c0,10,8.1,18.2,18,18.2
					C175.2,93.3,183.2,85.1,183.2,75.1z"/>
				<path class="st1" d="M181.2,171.1c0-3.7,0-67.4,0-67.4c0-1.3-1-2.3-2.3-2.3h-27.8c-1.3,0-2.4,1.3-2.4,2.6c0,0,0,81.1,0,96.5
					c0,2.8,1.8,3.7,4.1,3.7c0,0,11.9,0,25.1,0c2.7,0,3.4-1.3,3.4-3.7C181.2,195.3,181.2,175.1,181.2,171.1z"/>
			</g>
		</g>
		<path class="st1" d="M491.9,101.6h-27.7c-1.3,0-2.3,1-2.3,2.3v71.6c0,0-7,5.1-17,5.1s-12.6-4.5-12.6-14.3c0-9.8,0-62.4,0-62.4
			c0-1.3-1-2.3-2.3-2.3h-28.1c-1.3,0-2.3,1-2.3,2.3c0,0,0,38.1,0,67.1c0,29,16.2,36.1,38.4,36.1c18.3,0,33-10.1,33-10.1
			s0.7,5.3,1,5.9c0.3,0.6,1.1,1.3,2,1.3l17.9-0.1c1.3,0,2.3-1,2.3-2.3l0-98C494.2,102.7,493.2,101.6,491.9,101.6z"/>
		<path class="st1" d="M567.6,98.4c-15.7,0-26.4,7-26.4,7V55.9c0-1.3-1-2.3-2.3-2.3h-28c-1.3,0-2.3,1-2.3,2.3v146
			c0,1.3,1,2.3,2.3,2.3c0,0,19.4,0,19.4,0c0.9,0,1.5-0.5,2-1.2c0.5-0.8,1.2-6.7,1.2-6.7s11.4,10.8,33.1,10.8c25.4,0,40-12.9,40-57.9
			C606.6,104.2,583.3,98.4,567.6,98.4z M556.6,180.6c-9.6-0.3-16.1-4.7-16.1-4.7v-46.2c0,0,6.4-3.9,14.3-4.6
			c10-0.9,19.6,2.1,19.6,25.9C574.4,176.1,570.1,181,556.6,180.6z"/>
		<path class="st1" d="M261.4,101.4h-20.9c0,0,0-27.6,0-27.6c0-1-0.5-1.6-1.7-1.6h-28.5c-1.1,0-1.7,0.5-1.7,1.6v28.6
			c0,0-14.3,3.4-15.3,3.7c-1,0.3-1.7,1.2-1.7,2.2v17.9c0,1.3,1,2.3,2.3,2.3h14.6c0,0,0,18.8,0,43.2c0,32.1,22.5,35.2,37.7,35.2
			c6.9,0,15.2-2.2,16.6-2.7c0.8-0.3,1.3-1.2,1.3-2.1l0-19.7c0-1.3-1.1-2.3-2.3-2.3c-1.2,0-4.3,0.5-7.6,0.5c-10.3,0-13.8-4.8-13.8-11
			c0-6.2,0-41,0-41h20.9c1.3,0,2.3-1,2.3-2.3v-22.5C263.7,102.4,262.7,101.4,261.4,101.4z"/>
	</g>
</g>
</svg>
