<?xml version="1.0" encoding="utf-8"?>
<!-- Generator: Adobe Illustrator 16.0.3, SVG Export Plug-In . SVG Version: 6.00 Build 0)  -->
<!DOCTYPE svg PUBLIC "-//W3C//DTD SVG 1.1//EN" "http://www.w3.org/Graphics/SVG/1.1/DTD/svg11.dtd">
<svg version="1.1" xmlns="http://www.w3.org/2000/svg" xmlns:xlink="http://www.w3.org/1999/xlink" x="0px" y="0px" width="623.6px"
	 height="255.1px" viewBox="0 0 623.6 255.1" style="enable-background:new 0 0 623.6 255.1;" xml:space="preserve">
<style type="text/css">
<![CDATA[
	.st0{fill:#1CC691;}
	.st1{fill:#515254;}
	.st2{fill:#FFFFFF;}
]]>
</style>
<g id="BG">
	<rect class="st2" width="623.6" height="255.1"/>
</g>
<g id="Logo">
	<g>
		<path class="st0" d="M113,68.1c0,11.6-4.3,22.2-11.4,30.4L111.8,234H20.7l9.9-133.2C22.1,92.4,17,80.9,17,68.1c0-26,21.5-47,48-47
			S113,42.1,113,68.1 M65,78.8c6.4,0,11.5-5.1,11.5-11.4C76.5,61.1,71.4,56,65,56c-6.4,0-11.6,5.1-11.6,11.4
			C53.4,73.7,58.6,78.8,65,78.8 M74.1,119.8l-15.8,15.8v61.2h15.8V119.8z"/>
		<path class="st1" d="M235.8,180c-3.2,1.7-6.7,2.5-10.3,2.5c-4,0-7.5-1.1-10.5-3.4c-3-2.3-5-5.2-6.2-8.9c-1.2-3.6-1.7-8.7-1.7-15.3
			V129c0,0,0-1.3,0-3.9c0-0.7,0-4-2.1-5c-0.3-0.2-0.9-0.3-1.7-0.4c-0.6-0.1-1.1-0.6-1.1-1.2l0-3.5c0-0.7,0.5-1.2,1.2-1.2h13.2
			c1.9,0,3.4,1.5,3.4,3.4V135l0,21.9c0,6.6,1.2,10.9,3.5,13c2.3,2.1,5.1,3.1,8.4,3.1c2.3,0,4.8-0.7,7.7-2.1c2.8-1.4,7.6-4,11.5-8
			l0-3.3l0-31.5v-3.1c0-0.7,0-4-2-5c-0.3-0.2-0.8-0.3-1.6-0.4c-0.6-0.1-1.1-0.6-1.1-1.2l0-3.5c0-0.7,0.5-1.2,1.2-1.2h13
			c1.9,0,3.4,1.5,3.4,3.4v11.4c0,0.1,0,0.1,0,0.2v23.6c0,5.5,0,10.5,0,15.1c0,1,0,1.6,0,1.8c0,0.7-0.1,4.3,2,5.3
			c0.3,0.1,0.9,0.3,1.6,0.4c0.6,0.1,1.1,0.6,1.1,1.2l0,3.5c0,0.7-0.5,1.2-1.2,1.2h-13.1c-1.9,0-3.4-1.5-3.4-3.4l0-6.4l0-3.5
			C245.1,174.1,239,178.3,235.8,180"/>
		<path class="st1" d="M298.1,176.3c2.8,1.3,5.6,1.9,8.5,1.9c4.6,0,8.9-2.5,12.8-7.4c4-4.9,6-12.1,6-21.5c0-8.7-2-15.4-6-20
			c-4-4.7-8.5-7-13.5-7c-2.7,0-5.4,0.7-8,2c-1.8,0.9-4,2.5-6.6,4.9c-0.7,0.6-1.1,1.6-1.1,2.5v37.6c0,1,0.4,1.9,1.2,2.6
			C293.5,173.7,295.7,175.2,298.1,176.3 M277.6,93.9c0-0.7,0-3.9-2-4.8c-0.2-0.1-0.5-0.2-0.8-0.3c-0.5-0.1-0.9-0.6-0.9-1.2l0-3.3
			c0-0.7,0.5-1.2,1.2-1.2h2.5h9.2c1.8,0,3.3,1.5,3.3,3.3l0,17.1v21.9c6.7-9.1,14-13.7,21.8-13.7c7.1,0,13.3,3,18.7,8.9
			c5.3,5.9,8,14.1,8,24.4c0,12-4.1,21.7-12.3,29.1c-7,6.3-14.9,9.5-23.5,9.5c-4,0-8.1-0.7-12.3-2.1c-3.6-1.2-7.2-3-10.9-5.2
			c-1.2-0.7-1.9-2-1.9-3.4v-65.3c0-1.2,0-2.8,0-4.7L277.6,93.9z"/>
		<path class="st1" d="M411.8,180.7c-0.7,0-1.2-0.5-1.2-1.2l0-3.3c0-0.6,0.5-1.1,1.1-1.2c0.7-0.1,1.2-0.2,1.5-0.3c2-1,2-4.1,2-4.9
			v-3.9c0,0,0-8.3,0-24.8c0-2.7,0.1-5.4,0.1-7.8l0-6.6c0-0.7,0-1.5,0-2.1c0-0.9,0-4-2-5c-0.2-0.1-0.5-0.2-0.7-0.3
			c-0.5-0.1-0.9-0.6-0.9-1.2l0-3.3c0-0.7,0.5-1.2,1.2-1.2h11.5c1.8,0,3.3,1.5,3.3,3.2v4.8c0,0,0,0.9,0,2.6c0,0.4,0.4,0.8,0.8,0.8
			c0.2,0,0.4-0.1,0.6-0.3c7.7-8.4,17.5-12.6,24.4-12.6c3.8,0,7,0.9,9.8,2.7c2.7,1.8,4.9,4.8,6.5,9c1.1,2.9,1.7,7.4,1.7,13.4v23.5
			l0,9c0,0.7,0,3.9,2,4.9c0.3,0.1,0.6,0.2,1.1,0.3c0.6,0.1,1,0.6,1,1.2l0,3.3c0,0.7-0.5,1.2-1.2,1.2c-1.2,0-2.1,0-2.9,0h-9.2
			c-0.2,0-0.4,0-0.6-0.1h-4.4c-1.6,0-2.8-1.3-2.8-2.8c0-1.4,0.9-2.7,2.3-3.2c0.1,0,0.2-0.1,0.2-0.1c1.4-0.7,1.8-2.5,1.9-3.8v-10.6
			l0-21.7c0-6.1-0.8-10.5-2.5-13.2c-1.6-2.7-4.4-4.1-8.3-4.1c-6,0-14.6,3.2-20.5,9.5v29.5v0.4l0,9c0,0.7,0,3.9,2,4.9
			c0.1,0,0.2,0.1,0.2,0.1c1.4,0.5,2.3,1.7,2.3,3.2c0,1.5-1.2,2.8-2.8,2.8h-10.8C418.5,180.7,416.3,180.7,411.8,180.7"/>
		<path class="st1" d="M590.3,144.1c-9.4,1.9-14.8,3.1-16.2,3.6c-5.2,1.7-9.4,3.7-9.7,12.4c-0.1,3.6,1.1,6.6,3.3,9
			c2.2,2.4,4.7,3.6,7.5,3.6c3.5,0,8-2.6,13.6-6.8c1-0.8,1.6-1.9,1.6-3.1V144.1z M602.8,168.8c0,0.1,0,0.3,0,0.3c0,0.3,0,0.5,0,0.6
			c0.1,2,0.8,3.4,1.9,3.9c0.2,0.1,0.5,0.2,0.9,0.3c0.6,0.1,1,0.6,1,1.2l0,3.3c0,0.7-0.5,1.2-1.2,1.2h-11.8c-1.8,0-3.3-1.5-3.3-3.3
			V170c-7.1,5.5-11.6,8.6-13.4,9.5c-2.7,1.3-5.6,1.9-8.7,1.9c-4.8,0-8.8-1.6-11.9-4.9c-3.1-3.3-4.7-7.6-4.7-12.9
			c0-3.4,0.8-6.3,2.3-8.7c2.1-3.4,5.2-7.3,10.8-9.6c5.6-2.3,10.4-2.9,25.6-6.3c0-0.4,0-5.6,0-6.1c-0.1-6.4-1.1-13-11.9-12.4
			c-7.6,0.5-14.5,2.8-20.9,7.1c-0.6,0.4-1.3,0.2-1.7-0.3c-0.1-0.2-0.2-0.4-0.2-0.7v-3.9c0-2.1,0.4-3.4,1.2-4.1
			c4.5-3.6,15.5-7.8,26.2-7.1c11.9,0.8,16.2,5.7,18.4,13.2c0.7,2.3,1.4,4,1.4,10.6V156c0,2.9,0,5.7,0,8.3V168.8z"/>
		<path class="st1" d="M519.8,122c-2.4-1.4-4.8-2.1-7.1-2.1c-4.3,0-8.2,1.8-11.8,5.4c-3.9,3.9-6.5,9.2-6.5,19.1
			c0,10,2.2,17.7,6.5,23c4.3,5.3,9.1,8,14.4,8c3.8,0,7.5-1.6,11-4.8c1.2-1.1,1.9-2.7,1.9-4.3v-29.5C528.3,130.6,525.1,125,519.8,122
			 M542.4,174.2c0.2,0.1,0.5,0.2,0.8,0.3c0.5,0.1,0.9,0.6,0.9,1.2l0,3.2c0,0.7-0.5,1.2-1.2,1.2h-11.3c-1.8,0-3.2-1.4-3.2-3.2v-3.1
			c-3.3,3.5-6.5,6-9.7,7.5c-3.1,1.5-6.5,2.3-10.2,2.3c-7.4,0-13.8-3.1-19.3-9.3c-5.5-6.2-8.2-14.2-8.2-23.9s3-18.7,9.1-26.8
			c6.1-8.1,13.9-12.1,23.5-12.1c5.9,0,10.8,1.9,14.7,5.7V93.3c0-0.7,0-3.9-1.9-4.9c-0.2-0.1-0.4-0.2-0.7-0.3
			c-0.5-0.1-0.9-0.6-0.9-1.1l0-3.4c0-0.7,0.5-1.2,1.2-1.2h11.2c1.8,0,3.2,1.4,3.2,3.2v83.6C540.5,170.2,540.5,173.3,542.4,174.2"/>
		<path class="st1" d="M355.9,139.5c0,0.2,0.1,0.4,0.2,0.5c0.1,0.1,0.3,0.2,0.5,0.2h33.9c0.4,0,0.7-0.3,0.7-0.6
			c0.4-3.5,0.5-9.9-4.7-15.3c-2.6-2.7-5.8-4-11.8-4C364.1,120.3,357.1,130.6,355.9,139.5 M352.4,174.6c-5.5-6.2-8.3-16-8.3-25.8
			c0-10.3,3.2-19.8,9.1-26.6c6.1-7.1,14.5-10.9,24.3-10.9c8.2,0,14.5,2.8,18.7,8.3c3.9,5.1,5.8,12.5,5.8,21.8c0,1.1-0.1,2.7-0.2,4.7
			c-0.1,1.3-1.1,2.2-2.4,2.2h-42.3c-0.2,0-0.4,0.1-0.5,0.2c-0.1,0.1-0.2,0.3-0.2,0.5c0.2,7.7,2.6,14.2,7.1,18.8
			c4.4,4.5,10.5,6.9,17.6,6.9c5.3,0,12.2-1.4,17.6-3c0.8-0.2,1.6,0.2,1.8,0.9c0.1,0.2,0.1,0.5,0,0.8l-0.7,2.7c-0.3,1-1,1.8-1.9,2.3
			c-5.3,2.5-13.2,5-21.3,5C366.7,183.5,358.2,181.2,352.4,174.6"/>
		<path class="st1" d="M187.2,119.2v52.4c0,1.4,0.8,2.7,2,3.3c1.3,0.6,2.1,1.9,2.1,3.3v0.9c0,1.1-0.9,2-2.1,2h-17.8
			c-1.1,0-2-0.9-2-2v-1c0-1.4,0.8-2.6,2-3.2c1.2-0.6,2-1.9,2-3.2V121c0-0.7-0.6-1.3-1.3-1.3s-1.3-0.6-1.3-1.3v-1.6c0-1.6,1.3-3,3-3
			h7.9C184.7,113.8,187.2,116.2,187.2,119.2"/>
		<path class="st1" d="M180.3,83.7c4.7,0,8.5,3.8,8.5,8.4c0,4.7-3.8,8.4-8.5,8.4c-4.7,0-8.5-3.8-8.5-8.4
			C171.8,87.5,175.6,83.7,180.3,83.7"/>
	</g>
</g>
</svg>
