<svg xmlns="http://www.w3.org/2000/svg" viewBox="0 0 623.62 255.12"><defs><style>.cls-1{fill:#fff;}.cls-2{isolation:isolate;}</style></defs><title>mikamai</title><g id="BG"><rect class="cls-1" width="623.62" height="255.12"/></g><g id="Logo"><g class="cls-2"><path d="M187.7,194.72c0,5.68-2.51,9.5-8,9.5s-8-3.82-8-9.5V87.48c0-5.46,2.52-9.28,8-9.28s8,3.82,8,9.28v22.28c7.1.76,18.67,4,21.73,4,6,0,19.22-6.33,25.44-17,6.67-11.24,6-18.45,13.44-18.45,4.69,0,7.64,3.6,7.64,8,0,10.48-11.25,27.63-29.37,35.71,21.18,13.21,38.33,49.69,38.33,73.17,0,6.33-3.28,9.06-8.85,9.06-4.59,0-6.33-3.6-7.1-6.55s-1.42-10-3.6-18.89c-7.1-30.36-30.69-54.06-57.55-54.06v70Z"/></g><g class="cls-2"><path d="M14.17,78.2H31.1l32.43,77.32h.22L96.4,78.2h16.49v98.61H101.54V94.14h-.22l-34.4,82.67H60L25.75,94.14h-.22v82.78H14.17Z"/><path d="M136.59,78.2H148v98.61H136.59Z"/></g><g class="cls-2"><path d="M316.56,78.2h10.7l40.63,98.61H354.67L345,152.57H297.12l-9.83,24.24H274.41Zm5.13,15.07h-.32L301.6,141.76h39Z"/><path d="M380.55,78.2h16.93l32.44,77.32h.32L462.9,78.2h16.49v98.61H468V94.14h-.22l-34.29,82.78h-6.88L392.35,94.14h-.22v82.78H380.77V78.2Z"/><path d="M534.1,78.2h10.7l40.62,98.61H572.21l-9.72-24.24H514.66l-9.83,24.24H492.05Zm5.13,15.07h-.33L519,141.76h39Z"/><path d="M598.09,78.2h11.36v98.61H598.09Z"/></g></g></svg>