<svg xmlns="http://www.w3.org/2000/svg" viewBox="0 0 623.62 255.12"><defs><style>.cls-1{fill:#fff;}.cls-2{fill:#27282d;fill-rule:evenodd;}</style></defs><title>uala</title><g id="BG"><rect class="cls-1" width="623.62" height="255.12"/></g><g id="Logo"><g id="header"><path id="logo-2" data-name="logo" class="cls-2" d="M507.68,163.17H457l2.13-4.28,23.11-47,23.33,47Zm-83,0h-.44V164L403.4,206.09h32.18l8.3-16.61h76.87l8.13,16.61h32.17l-78.82-159Zm163.39.07a20.95,20.95,0,1,0,21.37,20.95,21.16,21.16,0,0,0-21.37-20.95ZM336.66,47.33H302.32V206.09h93.73V176H336.66Zm-192.47,0H110.07v96.53c0,16.73-11.45,33.87-30.89,33.87-19.66,0-30.88-17.14-30.88-33.87h-.22V47.33H14.17v96.53c0,35.35,20.74,64.14,65,64.14s65-28.79,65-64.14Zm46.17,115.84,2.13-4.28,23.1-47,23.33,47,2.13,4.28Zm82.88,0h-.1l-57.55-116-78.82,159h32.17l8.31-16.61h76.87l8.12,16.61h32.19l-21.19-42.73Z"/></g></g></svg>