<?xml version="1.0" encoding="utf-8"?>
<!-- Generator: Adobe Illustrator 18.0.0, SVG Export Plug-In . SVG Version: 6.00 Build 0)  -->
<!DOCTYPE svg PUBLIC "-//W3C//DTD SVG 1.1//EN" "http://www.w3.org/Graphics/SVG/1.1/DTD/svg11.dtd">
<svg version="1.1" id="Livello_1" xmlns:sketch="http://www.bohemiancoding.com/sketch/ns"
	 xmlns="http://www.w3.org/2000/svg" xmlns:xlink="http://www.w3.org/1999/xlink" x="0px" y="0px" viewBox="0 0 286 48"
	 enable-background="new 0 0 286 48" xml:space="preserve">
<title>logo rubyday</title>
<desc>Created with Sketch.</desc>
<g id="Page-1" sketch:type="MSPage">
	<g id="logo-rubyday" sketch:type="MSArtboardGroup">
		<path id="logo" sketch:type="MSShapeGroup" fill="#5D4CA0" d="M4.5,35V12.6c0-5,4.2-9,9.3-9h12.9c9,0,16.3,7.3,16.3,16.2
			c0,5.6-2.6,10.5-7,13.6c-0.7,0.5-0.3,1.5,0.6,1.1c1.9-0.9,3.3-1.9,4.9-4.3c2.6,3.7,2.1,8.5-1.1,11.7c-3.3,3.3-9.5,3.9-12.6-0.3
			l-4.9-5.8c-0.3,4.8-4.2,8.5-9.2,8.5C8.7,44.3,4.5,40.1,4.5,35L4.5,35z M22.2,17.5V23c0.4,0.2,0.8,0.2,1.4,0.2c1.7,0,2.9-1.3,2.9-3
			s-1.2-3.1-2.9-3.1C23,17.1,22.6,17.3,22.2,17.5z M44.7,25.1V12.8c0-5,4.1-9.2,9.3-9.2c5.1,0,9.1,4.2,9.1,9.2V24
			c0,0.7,0.5,1.4,1.3,1.4c0.7,0,1.3-0.7,1.3-1.4V12.8c0-5,4.1-9.2,9.3-9.2c4.9,0,9.1,4.2,9.1,9.2v12.3c0,10.6-8.9,19.5-19.6,19.5
			C53.6,44.6,44.7,35.7,44.7,25.1z M111.6,27.6c3.4-0.2,6.1-2.1,8.3-3.8c1.7,1.8,2.6,3,2.6,7.9c0,6-6.7,12.5-12.8,12.5H94.5
			c-4.9,0-9-4.3-9-9.2V12.6c0-5.1,4-9,9-9h14.4c6.2,0,11.6,5,11.6,11.6c0,5.4-4,10-9.1,11.2C110.5,26.4,110.5,27.7,111.6,27.6z
			 M145.7,6.1c3.5-3.6,9.2-3.6,12.6,0c3.4,3.5,3.4,9.3,0,12.9l-7.9,8v8c0,5-4.1,9.1-9.2,9.1c-5,0-9.1-4.1-9.1-9.1v-8l-7.9-8
			c-3.4-3.6-3.4-9.4,0-12.9c3.4-3.6,9-3.6,12.5,0l4.5,4.6L145.7,6.1z M171.8,44.1c-5.2,0-9.3-3.9-9.3-8.9V12.6c0-5,4-9.2,9.1-9.2
			h8.9c11.2,0,20.1,9.2,20.1,20.3c0,11.3-9.2,20.4-20.5,20.4H171.8z M184.1,23.8c0-1.7-1.3-3.1-3.1-3.1h-1.7v6h1.7
			C182.8,26.7,184.1,25.4,184.1,23.8z M215.9,41.2c-3.6,3.5-9.4,3.5-12.9,0c-3.5-3.5-3.5-9.1,0-12.6l21.8-22
			c2.8-3.3,7.7-4.1,11.4-1.9c2.8,1.4,4.6,4.4,4.6,7.8v22.6c0,5-4.5,9-9.1,9c-4.4,0-7.4-2.5-8.6-5.9l3.8-5.9c0.7-0.8-0.4-1.6-1.1-0.7
			L215.9,41.2z M266.3,6.1c3.5-3.6,9.2-3.6,12.6,0c3.4,3.5,3.4,9.3,0,12.9l-7.9,8v8c0,5-4.1,9.1-9.2,9.1c-5,0-9.1-4.1-9.1-9.1v-8
			l-7.9-8c-3.4-3.6-3.4-9.4,0-12.9c3.4-3.6,9-3.6,12.5,0l4.5,4.6L266.3,6.1z"/>
	</g>
</g>
</svg>
